<svg version="1.2" xmlns="http://www.w3.org/2000/svg" viewBox="0 0 400 193" width="400" height="193">
	<title>Cooksy-svg</title>
	<style>
		.s0 { fill: #ffffff } 
	</style>
	<g id="svgg">
		<path id="path0" fill-rule="evenodd" class="s0" d="m140.3 23.7c10.1 6.8 10.1 15.5 0.1 27.6-8.1 9.7-14.8 10.4-24.9 2.5-8.4-6.6-24.6-8.5-36.9-4.3-17.9 6-28.4 19.3-29.8 37.5-1.6 20.9 9.8 38.2 29.3 44.5 13.1 4.3 27.9 2.6 37.3-4.1 12.3-8.7 18-7.6 26.8 5.5 7.8 11.4 7.1 18.2-2.2 24.8-33.6 24-79.3 18.9-109.2-12.1-25.7-26.7-28.2-74.4-5.6-104.5 12.1-16.1 35.5-29 58.4-32.1 18.7-2.6 38.7 2.6 56.7 14.7zm132.2 72.3c1.7 1.5 1.7 1.8 1.7 18.2 0 9.5 0.1 14.7 0.3 14.7 0.1 0 2.1-1.7 4.3-3.8 8.8-8.5 11-9.2 15.1-4.8 4.9 5.3 4.6 6.9-2.1 12.7-2.2 1.8-4.5 3.7-5.1 4.3l-1 0.9 0.6 0.4c3.7 3 12.1 10.2 12.9 11 1.6 1.9 1.4 3.5-0.5 6.5-4.5 6.8-7.4 6.5-15.8-1.5-5.8-5.6-8.2-7.7-8.4-7.7-0.2 0-0.3 1.6-0.3 4.4 0 7.8-1.2 9.3-7.4 9.3-3.6 0-5.7-0.8-6.6-2.5l-0.6-1.1v-29.2c0-34.2-0.3-31.7 3.4-32.8 2.9-0.8 8.1-0.3 9.5 1zm-73.8 54.7c-12.1 18.2-40 11.6-42.9-10.1-1.6-12.1 7.6-23.9 20.1-25.7 19.6-2.7 33.7 19.4 22.8 35.8zm48.7 3.3c-10.1 10.9-28.2 9.3-36.6-3.2-9.4-14-0.6-33.5 16.2-35.8 21.8-3.1 35.3 22.9 20.4 39zm91.7-33.6c0.5 1.9-1.3 6-3.4 7.7-1.2 1-2.5 1.1-4.7 0.2-3.7-1.6-6.2-2.1-8.9-1.7-2.6 0.3-3.3 0.8-3.3 2.1 0 1.6 2 2.6 6.9 3.4 11.1 1.8 15.5 5.9 15.5 14.5 0 10-6 14.5-19.2 14.6-5.9 0-8.5-0.6-13.5-3.1-5.5-2.7-5.8-4.6-2.1-10.3 2.1-3.1 3.7-3.2 9-0.6 4.9 2.5 8.2 2.9 11 1.6 2.7-1.3 0.8-3.1-4.3-3.9-11.2-1.9-16.5-7.1-16.5-16.4 0-7.7 3.6-11.5 12.3-13.1 8-1.5 20.2 1.4 21.2 5zm21.2 0.5c5.5 9.3 10.1 16.9 10.4 16.9 0.2 0 0.8-1.1 1.4-2.4 3.5-8.1 8.1-18 8.8-18.8 3-3.6 12.8 0.4 12.8 5.1-0.1 1.3-0.2 1.6-3.2 8.3-4.1 9.3-4.5 10.1-5.6 12.3-0.5 1.3-1 2.3-1 2.4 0 0-0.4 0.9-0.8 1.9-0.4 0.9-1.9 4.3-3.3 7.4-1.4 3.1-3 6.6-3.6 7.9-0.5 1.2-1 2.2-1 2.3 0 0-0.5 1.2-1.2 2.6-0.6 1.4-1.2 2.6-1.2 2.7 0 0-0.3 0.8-0.7 1.6-0.3 0.8-1.2 2.7-1.9 4.3-2 4.4-2.8 5.2-5.3 5.2-3.5 0-8.8-3-9.3-5.3-0.4-1.8 0.2-3.5 5.4-15.1 1.4-2.9 2.4-5.4 2.4-5.5 0-0.2-1.8-3.4-4.1-7.2-14.9-25.1-14-23.4-14.3-24.8-0.5-2.4 1.5-4.8 6-7 4-2 5.7-1.1 9.3 5.2zm-188.9 13.2c-3 5.7 2.1 13.3 8.4 12.4 9.1-1.3 10.6-13.5 2.1-16.4-4-1.4-8.5 0.3-10.5 4zm54.7-3.4c-7.5 3.9-4.5 15.7 4.1 15.8 8.8 0 11.9-11.8 4.2-15.8-3.1-1.6-5.3-1.6-8.3 0zm173.8 60.5c0 0.5-0.2 0.6-0.7 0.6-0.7 0-1.1-0.8-0.5-1.2 0.6-0.4 1.2-0.1 1.2 0.6z"/>
	</g>
</svg>